<svg id="Clock" xmlns="http://www.w3.org/2000/svg" width="22" height="22" viewBox="0 0 22 22">
  <rect id="Canvas" width="22" height="22" fill="#ff13dc" opacity="0"/>
  <path id="Path_30" data-name="Path 30" d="M10.778,1a9.778,9.778,0,1,0,9.778,9.778A9.778,9.778,0,0,0,10.778,1Zm0,18.333a8.556,8.556,0,1,1,8.556-8.556,8.556,8.556,0,0,1-8.556,8.556Z" transform="translate(0.222 0.222)" fill="#707070"/>
  <path id="Path_31" data-name="Path 31" d="M10.444,9.164V3.611A.611.611,0,0,0,9.833,3H8.611A.611.611,0,0,0,8,3.611V10.08a.611.611,0,0,0,.179.432l3.427,3.427a.611.611,0,0,0,.864,0h0l.816-.816a.611.611,0,0,0,0-.864L10.623,9.6A.611.611,0,0,1,10.444,9.164Z" transform="translate(1.778 0.667)" fill="#707070"/>
</svg>
