<svg id="View" xmlns="http://www.w3.org/2000/svg" width="22" height="22" viewBox="0 0 22 22">
  <rect id="Canvas" width="22" height="22" fill="#ff13dc" opacity="0"/>
  <path id="Path_18" data-name="Path 18" d="M14.791,4.473a9.149,9.149,0,0,0-4.041-1c-5.295,0-9.625,5.271-9.625,6.981,0,1.833,4.558,6.539,9.586,6.539,5.072,0,9.664-4.709,9.664-6.539C20.375,9.007,17.8,5.963,14.791,4.473ZM10.75,15.867a5.638,5.638,0,1,1,5.638-5.637,5.637,5.637,0,0,1-5.638,5.637Z" transform="translate(0.25 0.771)" fill="#707070"/>
  <path id="Path_19" data-name="Path 19" d="M11.192,9.613a1.63,1.63,0,0,1-1.63-1.629A1.608,1.608,0,0,1,10.388,6.6a3.018,3.018,0,0,0-.825-.128,3.094,3.094,0,1,0,3.094,3.094h0a2.881,2.881,0,0,0-.107-.733A1.6,1.6,0,0,1,11.192,9.613Z" transform="translate(1.437 1.438)" fill="#707070"/>
</svg>
